<svg id="visual" viewBox="0 0 900 600" width="900" height="600" xmlns="http://www.w3.org/2000/svg" xmlns:xlink="http://www.w3.org/1999/xlink" version="1.1"><rect x="0" y="0" width="900" height="600" fill="#ffffff"></rect><path d="M0 75L18.8 76.8C37.7 78.7 75.3 82.3 112.8 74.8C150.3 67.3 187.7 48.7 225.2 48.5C262.7 48.3 300.3 66.7 337.8 73C375.3 79.3 412.7 73.7 450.2 64.3C487.7 55 525.3 42 562.8 44.3C600.3 46.7 637.7 64.3 675.2 74.2C712.7 84 750.3 86 787.8 83.8C825.3 81.7 862.7 75.3 881.3 72.2L900 69L900 0L881.3 0C862.7 0 825.3 0 787.8 0C750.3 0 712.7 0 675.2 0C637.7 0 600.3 0 562.8 0C525.3 0 487.7 0 450.2 0C412.7 0 375.3 0 337.8 0C300.3 0 262.7 0 225.2 0C187.7 0 150.3 0 112.8 0C75.3 0 37.7 0 18.8 0L0 0Z" fill="#EBE6DC" stroke-linecap="round" stroke-linejoin="miter"></path></svg>